<?xml version="1.0" encoding="UTF-8" standalone="no"?>
<!-- Created with Inkscape (http://www.inkscape.org/) -->

<svg
   xmlns:dc="http://purl.org/dc/elements/1.1/"
   xmlns:cc="http://creativecommons.org/ns#"
   xmlns:rdf="http://www.w3.org/1999/02/22-rdf-syntax-ns#"
   xmlns:svg="http://www.w3.org/2000/svg"
   xmlns="http://www.w3.org/2000/svg"
   xmlns:sodipodi="http://sodipodi.sourceforge.net/DTD/sodipodi-0.dtd"
   xmlns:inkscape="http://www.inkscape.org/namespaces/inkscape"
   width="512"
   height="512"
   id="svg2"
   version="1.1"
   inkscape:version="0.48.2 r9819"
   sodipodi:docname="hud.svg"
   inkscape:export-filename="C:\Users\Smatcher\SpaceLulpera\Assets\Textures\hud\hud.png"
   inkscape:export-xdpi="90"
   inkscape:export-ydpi="90">
  <defs
     id="defs4" />
  <sodipodi:namedview
     id="base"
     pagecolor="#ffffff"
     bordercolor="#666666"
     borderopacity="1.0"
     inkscape:pageopacity="0.0"
     inkscape:pageshadow="2"
     inkscape:zoom="1.4"
     inkscape:cx="355.08346"
     inkscape:cy="275.28731"
     inkscape:document-units="px"
     inkscape:current-layer="svg2"
     showgrid="false"
     showguides="false"
     inkscape:guide-bbox="true"
     inkscape:window-width="1680"
     inkscape:window-height="988"
     inkscape:window-x="-8"
     inkscape:window-y="-8"
     inkscape:window-maximized="1">
    <inkscape:grid
       type="xygrid"
       id="grid3793"
       empspacing="5"
       visible="true"
       enabled="true"
       snapvisiblegridlinesonly="true" />
  </sodipodi:namedview>
  <metadata
     id="metadata7">
    <rdf:RDF>
      <cc:Work
         rdf:about="">
        <dc:format>image/svg+xml</dc:format>
        <dc:type
           rdf:resource="http://purl.org/dc/dcmitype/StillImage" />
        <dc:title></dc:title>
      </cc:Work>
    </rdf:RDF>
  </metadata>
  <g
     inkscape:label="Calque 1"
     inkscape:groupmode="layer"
     id="layer1"
     transform="translate(0,-540.36218)" />
  <path
     style="fill:#000000;fill-opacity:0.66666667000000002;stroke:#000000;stroke-width:5;stroke-miterlimit:4;stroke-opacity:1;stroke-dasharray:none;stroke-linejoin:round;stroke-linecap:round"
     d="m 396.59375,65.5 -48.78125,0 c 72.20606,34.197723 122.15625,107.72295 122.15625,192.9375 0,81.98689 -46.22184,153.16581 -114.03125,188.90625 l 46.0625,0 c 56.53912,-43.59375 92.96875,-111.988 92.96875,-188.90625 0,-79.34024 -38.7654,-149.60904 -98.375,-192.9375 z m -285.40625,381.84375 46.0625,0 C 89.431384,411.60331 43.1875,340.42439 43.1875,258.4375 43.1875,173.22569 93.132394,99.699152 165.34375,65.5 l -48.75,0 C 56.975131,108.82846 18.1875,179.09726 18.1875,258.4375 c 0,76.91825 36.452006,145.3125 93,188.90625 z"
     id="path3783"
     inkscape:connector-curvature="0"
     sodipodi:nodetypes="ccsccscccsccsc" />
  <path
     style="fill:#000000;fill-opacity:0.66666667;stroke:#000000;stroke-width:5;stroke-linecap:round;stroke-linejoin:round;stroke-miterlimit:4;stroke-opacity:1;stroke-dasharray:none"
     d="m 288.59375,277.41071 c 4.16443,-6.14083 6.59375,-13.55067 6.59375,-21.53125 0,-21.21511 -17.19114,-38.40625 -38.40625,-38.40625 -21.21511,0 -38.40625,17.19114 -38.40625,38.40625 0,7.98058 2.42932,15.39042 6.59375,21.53125 l 12.5,0 c -5.91043,-5.29886 -9.625,-12.97192 -9.625,-21.53125 0,-15.97709 12.96041,-28.9375 28.9375,-28.9375 15.97709,0 28.9375,12.96041 28.9375,28.9375 0,8.55933 -3.71457,16.23239 -9.625,21.53125 l 12.5,0 z"
     id="path3795"
     inkscape:connector-curvature="0"
     inkscape:transform-center-y="-7.8571471" />
</svg>
